<svg xmlns="http://www.w3.org/2000/svg" viewBox="0 0 1553.14 706.07" width="1553.14" height="706.07"><defs><style>.cls-1{fill:#231f20;}.cls-2{fill:#367faf;}.cls-3{fill:#417ba2;}.cls-4{fill:#fff;}</style></defs><title>Asset 1</title><g id="Layer_2" data-name="Layer 2"><g id="svg4207"><g id="layer1"><g id="g4466"><g id="path4254"><path class="cls-1" d="M97.11,564.44H21.74v-75.8H101.2q43.62,0,43.62,38.49,0,37.32-47.71,37.32m54.17-76.69q-15.49-13.87-43.35-13.87L0,474.48V655.8H21.74l-.2-77.2h80.31q30.21,0,47.56-13.87t17.35-38.49Q166.76,501.63,151.27,487.76Z"/></g><g id="path4256"><path class="cls-1" d="M292,617.75a37.16,37.16,0,0,1-10.32,15.42q-14.61,14.26-44.59,14.26-27.07,0-41.57-13.86T181,596.46a56.86,56.86,0,0,1,3.8-21.48,42.06,42.06,0,0,1,11-15.82q15-13.67,41.28-13.67,58.22,0,58.22,51A62.64,62.64,0,0,1,292,617.75M296,550.86q-19.88-18.13-58.85-18.13-36.84,0-56.91,18.52Q162.08,568,162.08,596.46q0,28.26,18.71,45.6a62.47,62.47,0,0,0,24.07,13.55q13.74,4.19,32.25,4.19,38.78,0,59-17.93,18.12-16.37,18.12-45.41Q314.28,567.23,296,550.86Z"/></g><g id="path4258"><path class="cls-1" d="M460.47,623q0,36.61-65.6,36.61-20.05,0-33.78-2.55t-22.29-8.43a32.6,32.6,0,0,1-10.51-11.69q-3.9-7.21-5.06-18.11l20.35-.19q0,14.41,10.68,21.23Q365.72,648,394.87,648q45.85,0,45.85-23,0-13.43-15.38-18.5-3.12-1-37.09-5.16t-42.34-7.5q-18.1-7.2-18.1-25.9,0-18.31,16.17-27.27A80.13,80.13,0,0,1,364,535a166.69,166.69,0,0,1,27.77-2q63.14,0,63.14,39.62H435.54q0-27.85-44.39-27.85-22.58,0-33.68,5.65t-11.1,17.33q0,10.91,15,15.77,8.76,2.54,40.31,5.85,28.23,2.53,38.75,7.21Q460.47,604.29,460.47,623Z"/></g><g id="path4260"><path class="cls-1" d="M540.4,656.05q-4.68.78-8.28,1.16c-2.4.25-4.12.39-5.16.39q-19.87,0-28.66-5.76t-8.79-20.2V548.89H465.37V536.72h23.94l.19-39.1h18.55v39.1h32.3v12.37l-32.3-.2V629.4q0,9,4.77,12.41t17,3.42a14.77,14.77,0,0,0,3.9-.13q2.14-.33,6.43-1.47Z"/></g><g id="path4262"><path class="cls-1" d="M668.7,628.6a55,55,0,0,1-17.32,9.54A69.47,69.47,0,0,1,629,641.44q-58.2,0-58.19-48.07,0-22.38,14.89-35t41.94-12.65q27.25,0,41.36,12.75T683.1,592.6q0,23.35-14.41,36m33-91.8H683.1l-.2,20.45q-12.27-12.46-17.53-15.76-15.58-8.56-40.31-8.56-36.22,0-55.31,16.55-18.11,15.18-18.11,44a66.54,66.54,0,0,0,4.58,25.4,50.64,50.64,0,0,0,13.36,19q19.11,16,54,16,41.93,0,59.49-22.94V652q0,20.25-12.76,31.35t-42,11.11q-27.46,0-39.14-7.56-8.77-5.81-12.07-20.16H558.08q3.11,20,16.95,29,16,10.31,54,10.31,72.66,0,72.67-54Z"/></g><g id="path4264"><path class="cls-1" d="M802,548.85a97.51,97.51,0,0,0-15.56-1.36q-45.74,0-45.74,50.16V655.8H722.35l-.2-119,18.55.18v21.23h1q4.67-12.55,14.79-19,11.09-6.27,33.08-6.27H802Z"/></g><g id="path4266"><path class="cls-1" d="M819.25,588.78q3.5-20.29,15.76-31.41a55.18,55.18,0,0,1,18.1-9.66,75.13,75.13,0,0,1,22.78-3.22q24.72,0,40.39,13.56T932,588.78H819.25m114.52-36.71a59.49,59.49,0,0,0-24.16-14.46q-14.42-4.69-33.71-4.69-36.06,0-55.93,16.76t-19.87,45.6q0,28.84,19.09,45.79,20.64,18.71,58.25,18.71a107.79,107.79,0,0,0,27.75-3.4,76.84,76.84,0,0,0,22.31-9.61q16.75-12,21.23-29.68H928.67q-10.32,30.52-51.4,30.52-29,0-44.59-14.93-13.44-12.79-13.43-33.15H951.51Q951.51,569.27,933.77,552.07Z"/></g><g id="path4268"><path class="cls-2" d="M1147.5,607.2q0,53-85.48,53-51.22,0-74.77-18.26Q968,626.93,968,596.16h22.94q0,49.47,71.1,49.47,34.09,0,49.29-10.12,12.86-8.94,12.86-28,0-18.88-17.54-26.47-9.94-4.09-48.51-10.32-48.51-7.4-62.92-14.79-20.84-10.9-20.84-37,0-24.33,17.73-36.2,19.08-13,65.46-13,83.78,0,83.78,55.65h-23.14q0-41.69-62.21-41.68-31.2,0-45.63,8.38-13.65,9-13.65,26.3,0,18.12,17.54,25.53,9.34,4.29,54.94,11.89,42.87,6.43,57.87,15Q1147.5,581.28,1147.5,607.2Z"/></g><g id="path4270"><path class="cls-2" d="M1333.84,625.22a89.51,89.51,0,0,1-29.05,15.46,119.35,119.35,0,0,1-36.27,5.15q-41,0-66.21-22.07t-25.24-58.82q0-38.31,25.05-59.7t66.4-21.39q41.92,0,65.91,22.36a67.46,67.46,0,0,1,18.72,25.48q6,14.59,6,33.25,0,38.11-25.35,60.28m12.19,12q17.93-12.64,26.52-30.64t8.59-41.55q0-42.23-28.06-67.73a94.57,94.57,0,0,0-36.24-20.82q-21.23-6.81-48.51-6.81-53,0-83.19,25.69T1154.93,565q0,42.81,30.48,69.08t83.27,26.27a204.1,204.1,0,0,0,36-2.79q15.39-2.8,26.1-8.58l33.89,23.49,14.15-13Z"/></g><g id="path4272"><path class="cls-2" d="M1552.94,655.8H1396.19V474.27l21.55-.39V640.64h135.4Z"/></g></g><g id="g4478"><g id="path4276"><path class="cls-1" d="M874.58,328.12c2.84-23.67,2-27.14,19.62-23.3l4.48.39c13.55.62,31.29-2.18,41.7-7C962.8,287.78,976.1,270.41,954,275c-50.44,10.4-53.9-6.68-53.9-6.68,53.26-79,75.52-179.34,56.31-203.89C904-2.57,813.24,29.1,811.73,29.93l-.48.09a179.79,179.79,0,0,0-33.65-3.5c-22.82-.38-40.14,6-53.28,15.95,0,0-161.86-66.68-154.33,83.86,1.6,32,45.91,242.33,98.74,178.81,19.31-23.23,38-42.87,38-42.87a49,49,0,0,0,32,8.17l.9-.77a35.06,35.06,0,0,0,.36,9c-13.61,15.21-9.61,17.88-36.83,23.48-27.53,5.67-11.36,15.78-.8,18.42,12.8,3.2,42.42,7.74,62.43-20.28l-.8,3.2c5.34,4.27,5,30.7,5.74,49.59s2,36.51,5.87,46.9,8.39,37.15,44.16,29.49c29.89-6.4,52.75-15.62,54.83-101.39"/><path class="cls-1" d="M808.07,452.56c-11.75,0-24.64-3.1-35.36-13.21-10.26-9.68-14.22-21.83-16.59-29.08-.35-1.07-.68-2.07-.91-2.7C750.5,394.85,748.93,377,748,354c-.13-3.37-.24-7-.34-10.65,0-1-.06-2.12-.09-3.28-15,5.53-32.24,6.2-50.5,1.63A56.08,56.08,0,0,1,681.16,335a38.24,38.24,0,0,1-6.72-5.31c-15.58,11.72-30.29,9.73-38.55,7-25.24-8.42-45.91-41.54-65-104.24-13.33-43.66-21.8-89.8-22.56-105-2.42-48.49,10.82-83.31,39.37-103.47,23.5-16.6,55.47-21.73,95-15.24a259,259,0,0,1,38.8,9.63C737.73,9,756.68,4.44,778,4.78a208.89,208.89,0,0,1,32,2.87A189.44,189.44,0,0,1,865.23,0c45.14.54,82.58,18.17,108.27,51,17.94,22.92,11.51,67.22,3,100.35-9,34.93-24.38,71.93-43.3,104.88a148.8,148.8,0,0,0,16.44-2.55c26.91-5.56,34.54,10.74,36.23,15.87,8.37,25.33-25.67,43.4-36.31,48.33-15.4,7.16-37.14,9.69-51.84,9l-1.07-.07q-.16,1.37-.33,2.84c-1.17,44.26-7.62,72.47-20.9,91.38-14.3,20.37-33.86,26-51.07,29.69A78,78,0,0,1,808.07,452.56Zm-30.51-166c11.73,9.38,12.72,25.51,13.55,55.56.1,3.5.19,6.92.32,10.12.34,8.58,1.26,31.37,4.54,40.22.53,1.43,1,2.9,1.47,4.32,1.22,3.75,2.9,8.88,5.1,11,2.59,2.44,10.34,1,12.66.52,13.33-2.86,19.7-5.18,24.61-12.18,7.82-11.14,12.21-34.18,13-68.49l0-1,.12-1q.27-2.26.5-4.27c1.64-14.13,3.06-26.33,14.11-34.23a28.56,28.56,0,0,1,15-5.21,27.66,27.66,0,0,1-3.83-9.2L877,263.7l5.09-7.55c22.6-33.53,41.45-74.86,51.71-113.38,10.38-39,8.15-60.6,5.43-65.08-17-21.66-41.13-33.16-71.73-34.17a147.51,147.51,0,0,0-46.85,6.29l-1.57.85L811,52.16l-4.16-.86a159.2,159.2,0,0,0-29.59-3.06C761.05,48,748,51.74,737.45,59.77l-9.91,7.52L716,62.55c-19-7.75-74.64-23.44-103.37-3.08-15.55,11-22.61,33.15-21,65.76.55,11,8.07,52.84,20.49,93.75,16.25,53.52,30.71,72,36.31,75.81a23.24,23.24,0,0,0,3.53-3.56c19.55-23.51,38.15-43.12,38.93-43.94l12.57-13.23,15.2,10.1a28.27,28.27,0,0,0,12,4.55l35.79-30.53-5.25,53.6a13.67,13.67,0,0,0,.21,3.6L763,285.54l-6,6.72,11.68,5.39ZM960.27,296h0ZM939.17,77.65h0Z"/></g><g id="path4278"><path class="cls-3" d="M954,275c-50.44,10.4-53.91-6.68-53.91-6.68,53.26-79,75.52-179.34,56.31-203.9C904-2.57,813.24,29.1,811.73,29.93l-.49.09a179.85,179.85,0,0,0-33.66-3.5c-22.82-.37-40.13,6-53.27,15.95,0,0-161.86-66.68-154.33,83.86,1.6,32,45.9,242.34,98.74,178.81,19.31-23.23,38-42.87,38-42.87a49,49,0,0,0,32,8.17l.9-.77a35.29,35.29,0,0,0,.36,9c-13.61,15.21-9.61,17.88-36.82,23.48-27.54,5.67-11.36,15.78-.8,18.42,12.8,3.2,42.42,7.74,62.43-20.28l-.8,3.2c5.33,4.27,9.08,27.79,8.45,49.1s-1,36,3.16,47.39,8.39,37.15,44.17,29.49c29.89-6.4,45.38-23,47.54-50.69,1.53-19.69,5-16.78,5.21-34.38l2.78-8.33c3.2-26.69.51-35.29,18.92-31.29l4.48.39c13.55.62,31.29-2.18,41.71-7C962.8,287.78,976.1,270.41,954,275Z"/></g><g id="path4282"><path class="cls-4" d="M810.14,438.93c-31.05,0-41.11-25.15-44.71-34.16-5.77-14.42-7-68-5.72-114.7a7.24,7.24,0,0,1,7.24-7h.21a7.24,7.24,0,0,1,7,7.44c-1.25,44.64.16,97.59,4.69,108.91,12.12,30.3,32.08,26,42.8,23.73,26.19-5.61,35.5-15,39.86-40.33,3.4-19.69,10.12-75.76,11-86.83A7.24,7.24,0,0,1,886.94,297c-.87,11.57-7.58,67.71-11.12,88.21-5.36,31.09-19.21,45.19-51.1,52A69.64,69.64,0,0,1,810.14,438.93Z"/></g><g id="path4286"><path class="cls-4" d="M648.27,323.63a25.77,25.77,0,0,1-8.17-1.35c-19.84-6.62-38.61-38.49-55.77-94.73-13-42.56-21.22-87-21.94-101.5-2.16-43.22,9-73.84,33.29-91C616,20.65,644.35,16.27,680,22a234.56,234.56,0,0,1,46.79,12.63,7.24,7.24,0,1,1-5.48,13.41c-1-.39-76.1-30.41-117.29-1.19C584.11,61,575,87.39,576.86,125.33c.6,12.06,8.25,55.13,21.33,98,15.05,49.32,32,80.38,46.5,85.21,2.11.7,8.54,2.85,18.11-8.66,19.25-23.16,36.94-41.65,37.11-41.83a7.24,7.24,0,0,1,10.46,10c-.17.18-17.53,18.32-36.43,41.07C664.63,320.33,655.63,323.63,648.27,323.63Z"/></g><g id="path4290"><path class="cls-4" d="M899.72,274.92a7.24,7.24,0,0,1-6-11.29c24-35.62,43.8-79.41,54.32-120.14,11.2-43.38,8.23-67.65,2.29-75.25C903,7.7,822.15,33.23,814.75,35.76a7.51,7.51,0,0,1-10-3.46,7.26,7.26,0,0,1,2.87-9.19c2.37-1.44,27.24-9.57,56.92-9.24,40.7.43,74.33,16.14,97.25,45.44,15.61,20,5.43,68,.33,87.8-10.92,42.27-31.45,87.69-56.34,124.62A7.24,7.24,0,0,1,899.72,274.92Z"/></g><g id="path4294"><path class="cls-4" d="M902.09,311.87c-9.16,0-17.5-1.29-22.74-4.43-5.65-3.38-6.73-8.05-6.87-10.53-1.32-23.16,10.71-29.07,17.95-31.37-.75-1-1.62-2.08-2.47-3.15-4-5.05-9.58-12-13.87-22.37-.63-1.52-2.67-5.19-5-9.44-14.11-25.31-40.39-72.43-22.53-98,8.21-11.74,23.51-16.45,46.63-14.31-8.15-22.71-41.39-84-116-85.19-23.08-.4-42,6.7-56.24,21-32,32.34-30.86,91-30.84,91.62a7.24,7.24,0,0,1-14.48.38c-.07-2.66-1.3-65.5,35-102.19,17.09-17.26,39.52-25.79,66.78-25.34,50.58.83,83.14,26.54,101.54,48C899,90,908.8,115.83,909.62,124.5c.73,7.73-5.33,9.2-6,9.35l-2.61.06c-15.46-2.48-35.41-3.27-42.6,7-12.66,18.09,13.47,65,23.31,82.6,2.91,5.22,4.83,8.67,5.78,11,3.5,8.49,8.1,14.23,11.79,18.84,3.35,4.19,6.27,7.83,7.41,12.25.71,1,8.09,9.4,45.5,1.67,10.86-2.24,17.44-.15,19.54,6.23,3.93,11.88-16.16,24.86-28.64,30.66C933.59,308.54,916.78,311.87,902.09,311.87ZM886.9,295.09c2,1.15,8.5,2.82,20.31,2.19,11.14-.6,22.83-3.06,29.77-6.28a74,74,0,0,0,14.66-8.87c-24.12,4.58-41.38,3.58-51.34-3q-.75-.49-1.4-1c-.73.24-1.46.44-2.18.65C891.17,280.35,886.36,281.7,886.9,295.09Z"/></g><g id="path4298"><path class="cls-4" d="M720.42,329.63A83.15,83.15,0,0,1,700.23,327c-2.06-.52-20.15-5.38-19.91-17.28.23-11,15.32-14.09,21-15.26,18.87-3.89,20.08-5.42,25.86-12.76,1.78-2.26,4-5.07,7-8.46,10.47-11.71,20.35-7.61,24.57-5.87,6.59,2.73,12.08,9.3,14.32,17.13,2,7.13,1,14-2.79,19.39C758.23,320.83,740.92,329.63,720.42,329.63Zm-23-19.13a28.58,28.58,0,0,0,6.36,2.45c16.38,4.1,39.17,4.4,54.78-17.47,1.65-2.31,1.12-5.37.65-7-1-3.47-3.49-6.72-5.94-7.73-3.35-1.39-4.61-1.91-8.23,2.14h0c-2.72,3-4.7,5.55-6.44,7.76-7.8,9.9-11.36,13.26-34.32,18A50.81,50.81,0,0,0,697.38,310.5Zm42.23-32.42h0Z"/></g><g id="path4302"><path class="cls-4" d="M738.71,285.06a7.25,7.25,0,0,1-7.15-6.15q-.13-.84-.21-1.69A58.07,58.07,0,0,1,692,259c-13.95-14.55-20.29-34.7-17.41-55.29,3-21.72,1.9-40.93,1.29-51.25-.17-2.91-.3-5-.29-6.51,0-2.27.05-7.57,17.06-16.2,5.86-3,17.61-8.15,30.47-9.48,21.45-2.22,36.18,7.77,40.43,27.4,11.24,52,.87,75.06-6.7,91.89-1.38,3.08-2.69,6-3.73,8.77l-.94,2.51c-3.89,10.42-7.24,19.43-6.25,25.9a7.25,7.25,0,0,1-7.17,8.34ZM690.1,148.17c0,1,.12,2.15.19,3.41.64,10.82,1.83,31-1.4,54.11-2.26,16.16,2.67,31.93,13.53,43.26a43.58,43.58,0,0,0,30.43,13.83,173.48,173.48,0,0,1,5.72-17l.93-2.49c1.21-3.25,2.61-6.37,4.1-9.67,7.13-15.83,16-35.53,5.75-82.89-1.9-8.8-6.22-13.74-13.59-15.53C720.06,131.36,696.13,143,690.1,148.17Z"/></g><g id="path4306"><path class="cls-4" d="M723.48,145.08c-.29,2,3.74,7.5,9,8.23s9.74-3.53,10-5.57-3.74-4.3-9-5S723.76,143,723.48,145.08Z"/><path class="cls-4" d="M733.68,155.8a11,11,0,0,1-1.53-.11A14.38,14.38,0,0,1,723,150c-.84-1.11-2.2-3.27-1.92-5.27a4.26,4.26,0,0,1,1.76-2.84c2.15-1.63,6.36-2.24,11-1.6,5.74.8,11.64,3.57,11.06,7.76-.3,2.16-2.36,4.26-4.19,5.49A12.58,12.58,0,0,1,733.68,155.8ZM726,145.61a9.91,9.91,0,0,0,6.84,5.3,8,8,0,0,0,7.19-3.31c-.67-.71-3-2-6.83-2.51S726.85,145.12,726,145.61Zm-.09-.35Z"/></g><g id="path4310"><path class="cls-4" d="M883.34,140.91c.29,2-3.74,7.5-9,8.23s-9.75-3.53-10-5.58,3.75-4.3,9-5S883.06,138.87,883.34,140.91Z"/><path class="cls-4" d="M873.12,150.43c-5.31,0-9.65-4.17-10-6.7-.44-3.22,4.72-5.65,10-6.39a20.58,20.58,0,0,1,7.32.17c3.26.77,3.95,2.36,4.07,3.24.25,1.75-1.26,4-2.74,5.61a12.91,12.91,0,0,1-7.29,4A10.1,10.1,0,0,1,873.12,150.43Zm3.44-10.92a22.45,22.45,0,0,0-3.08.22c-5.49.77-8.08,2.92-8,3.67.19,1.36,4.06,5.19,8.67,4.54a10.43,10.43,0,0,0,5.87-3.26c1.6-1.69,2.16-3.18,2.1-3.61h0c0-.29-.67-.85-2.23-1.22A14.75,14.75,0,0,0,876.56,139.51Z"/></g><g id="path4314"><path class="cls-4" d="M890.91,259.71a7.24,7.24,0,0,1-6-11.27c12-17.93,9.88-35.58,7.64-54.27-.93-7.78-1.9-15.82-1.65-23.6a164.24,164.24,0,0,1,2.24-20.86c1.14-7.38,2.21-14.35,1.77-22.56a7.24,7.24,0,0,1,14.47-.78c.52,9.71-.72,17.76-1.92,25.54A152.4,152.4,0,0,0,905.37,171c-.22,6.68.64,13.83,1.55,21.4,2.35,19.53,5,41.67-10,64.06A7.24,7.24,0,0,1,890.91,259.71Z"/></g></g></g></g></g></svg>