<svg xmlns="http://www.w3.org/2000/svg" viewBox="0 0 1553.14 706.07"><defs><style>.cls-1{fill:#fff;}</style></defs><title>Asset 2</title><g id="Layer_2" data-name="Layer 2"><g id="svg4207"><g id="layer1"><g id="g4466"><g id="path4254"><path class="cls-1" d="M97.11,564.44H21.74v-75.8H101.2q43.62,0,43.62,38.49,0,37.32-47.71,37.32m54.17-76.69q-15.49-13.87-43.35-13.87L0,474.48V655.8H21.74l-.2-77.2h80.31q30.21,0,47.56-13.87t17.35-38.49Q166.76,501.63,151.27,487.76Z"/></g><g id="path4256"><path class="cls-1" d="M292,617.75a37.16,37.16,0,0,1-10.32,15.42q-14.61,14.26-44.59,14.26-27.07,0-41.57-13.86T181,596.46a56.86,56.86,0,0,1,3.8-21.48,42.06,42.06,0,0,1,11-15.82q15-13.67,41.28-13.67,58.22,0,58.22,51A62.64,62.64,0,0,1,292,617.75M296,550.86q-19.88-18.13-58.85-18.13-36.84,0-56.91,18.52Q162.08,568,162.08,596.46q0,28.26,18.71,45.6a62.47,62.47,0,0,0,24.07,13.55q13.74,4.19,32.25,4.19,38.78,0,59-17.93,18.12-16.37,18.12-45.41Q314.28,567.23,296,550.86Z"/></g><g id="path4258"><path class="cls-1" d="M460.47,623q0,36.61-65.6,36.61-20.05,0-33.78-2.55t-22.29-8.43a32.6,32.6,0,0,1-10.51-11.69q-3.9-7.21-5.06-18.11l20.35-.19q0,14.41,10.68,21.23Q365.72,648,394.87,648q45.85,0,45.85-23,0-13.43-15.38-18.5-3.12-1-37.09-5.16t-42.34-7.5q-18.1-7.2-18.1-25.9,0-18.31,16.17-27.27A80.13,80.13,0,0,1,364,535a166.69,166.69,0,0,1,27.77-2q63.14,0,63.14,39.62H435.54q0-27.85-44.39-27.85-22.58,0-33.68,5.65t-11.1,17.33q0,10.91,15,15.77,8.76,2.54,40.31,5.85,28.23,2.53,38.75,7.21Q460.47,604.29,460.47,623Z"/></g><g id="path4260"><path class="cls-1" d="M540.4,656.05q-4.68.78-8.28,1.16c-2.4.25-4.12.39-5.16.39q-19.87,0-28.66-5.76t-8.79-20.2V548.89H465.37V536.72h23.94l.19-39.1h18.55v39.1h32.3v12.37l-32.3-.2V629.4q0,9,4.77,12.41t17,3.42a14.77,14.77,0,0,0,3.9-.13q2.14-.33,6.43-1.47Z"/></g><g id="path4262"><path class="cls-1" d="M668.7,628.6a55,55,0,0,1-17.32,9.54A69.47,69.47,0,0,1,629,641.44q-58.2,0-58.19-48.07,0-22.38,14.89-35t41.94-12.65q27.25,0,41.36,12.75T683.1,592.6q0,23.35-14.41,36m33-91.8H683.1l-.2,20.45q-12.27-12.46-17.53-15.76-15.58-8.56-40.31-8.56-36.22,0-55.31,16.55-18.11,15.18-18.11,44a66.54,66.54,0,0,0,4.58,25.4,50.64,50.64,0,0,0,13.36,19q19.11,16,54,16,41.93,0,59.49-22.94V652q0,20.25-12.76,31.35t-42,11.11q-27.46,0-39.14-7.56-8.77-5.81-12.07-20.16H558.08q3.11,20,16.95,29,16,10.31,54,10.31,72.66,0,72.67-54Z"/></g><g id="path4264"><path class="cls-1" d="M802,548.85a97.51,97.51,0,0,0-15.56-1.36q-45.74,0-45.74,50.16V655.8H722.35l-.2-119,18.55.18v21.23h1q4.67-12.55,14.79-19,11.09-6.27,33.08-6.27H802Z"/></g><g id="path4266"><path class="cls-1" d="M819.25,588.78q3.5-20.29,15.76-31.41a55.18,55.18,0,0,1,18.1-9.66,75.13,75.13,0,0,1,22.78-3.22q24.72,0,40.39,13.56T932,588.78H819.25m114.52-36.71a59.49,59.49,0,0,0-24.16-14.46q-14.42-4.69-33.71-4.69-36.06,0-55.93,16.76t-19.87,45.6q0,28.84,19.09,45.79,20.64,18.71,58.25,18.71a107.79,107.79,0,0,0,27.75-3.4,76.84,76.84,0,0,0,22.31-9.61q16.75-12,21.23-29.68H928.67q-10.32,30.52-51.4,30.52-29,0-44.59-14.93-13.44-12.79-13.43-33.15H951.51Q951.51,569.27,933.77,552.07Z"/></g><g id="path4268"><path class="cls-1" d="M1147.5,607.2q0,53-85.48,53-51.22,0-74.77-18.26Q968,626.93,968,596.16h22.94q0,49.47,71.1,49.47,34.09,0,49.29-10.12,12.86-8.94,12.86-28,0-18.88-17.54-26.47-9.94-4.09-48.51-10.32-48.51-7.4-62.92-14.79-20.84-10.9-20.84-37,0-24.33,17.73-36.2,19.08-13,65.46-13,83.78,0,83.78,55.65h-23.14q0-41.69-62.21-41.68-31.2,0-45.63,8.38-13.65,9-13.65,26.3,0,18.12,17.54,25.53,9.34,4.29,54.94,11.89,42.87,6.43,57.87,15Q1147.5,581.28,1147.5,607.2Z"/></g><g id="path4270"><path class="cls-1" d="M1333.84,625.22a89.51,89.51,0,0,1-29.05,15.46,119.35,119.35,0,0,1-36.27,5.15q-41,0-66.21-22.07t-25.24-58.82q0-38.31,25.05-59.7t66.4-21.39q41.92,0,65.91,22.36a67.46,67.46,0,0,1,18.72,25.48q6,14.59,6,33.25,0,38.11-25.35,60.28m12.19,12q17.93-12.64,26.52-30.64t8.59-41.55q0-42.23-28.06-67.73a94.57,94.57,0,0,0-36.24-20.82q-21.23-6.81-48.51-6.81-53,0-83.19,25.69T1154.93,565q0,42.81,30.48,69.08t83.27,26.27a204.1,204.1,0,0,0,36-2.79q15.39-2.8,26.1-8.58l33.89,23.49,14.15-13Z"/></g><g id="path4272"><path class="cls-1" d="M1552.94,655.8H1396.19V474.27l21.55-.39V640.64h135.4Z"/></g></g><path class="cls-1" d="M985.83,269.56c-1.7-5.13-9.32-21.43-36.23-15.87a148.8,148.8,0,0,1-16.44,2.55c18.92-32.95,34.28-69.95,43.3-104.88,8.56-33.13,15-77.42-3-100.35C947.81,18.19,910.37.55,865.23,0A189.44,189.44,0,0,0,809.9,7.65a208.89,208.89,0,0,0-32-2.87c-21.27-.34-40.22,4.2-56.49,13.55a259,259,0,0,0-38.8-9.63c-39.54-6.49-71.51-1.36-95,15.24-28.55,20.16-41.79,55-39.37,103.47.76,15.2,9.23,61.34,22.56,105,19.14,62.7,39.8,95.82,65,104.24,8.27,2.76,23,4.75,38.55-7a38.24,38.24,0,0,0,6.72,5.31,56.08,56.08,0,0,0,15.91,6.71c18.27,4.57,35.48,3.9,50.5-1.63,0,1.15.06,2.25.09,3.28.1,3.68.2,7.28.34,10.65.92,23,2.5,40.87,7.21,53.58.23.62.56,1.63.91,2.7,2.37,7.26,6.33,19.4,16.59,29.08,10.72,10.12,23.6,13.21,35.36,13.21a78,78,0,0,0,16.24-1.8c17.21-3.69,36.77-9.33,51.07-29.69,13.28-18.91,19.74-47.12,20.9-91.38q.17-1.47.33-2.84l1.07.07c14.7.67,36.44-1.86,51.84-9C960.16,313,994.2,294.9,985.83,269.56ZM960.27,296h0Zm-17.2,8.18c-9.49,4.4-26.29,7.74-41,7.74A63.4,63.4,0,0,1,885.64,310c-2.33,21.24-7.05,59.18-9.83,75.24-5.36,31.09-19.21,45.19-51.1,52a69.64,69.64,0,0,1-14.58,1.65c-31.05,0-41.11-25.15-44.71-34.16-4.72-11.8-6.42-49.82-6.17-88.83-10.75,9-23.94,13.7-38.84,13.7A83.15,83.15,0,0,1,700.23,327c-2.06-.52-20.15-5.38-19.91-17.28.23-11,15.32-14.09,21-15.26,18.87-3.89,20.08-5.42,25.86-12.76,1-1.32,2.23-2.83,3.63-4.52a56.37,56.37,0,0,1-23.08-6.33c-5.56,5.94-19.21,20.73-33.8,38.28-9.31,11.2-18.31,14.49-25.67,14.49a25.77,25.77,0,0,1-8.17-1.35c-19.84-6.62-38.61-38.49-55.77-94.73-13-42.56-21.22-87-21.94-101.5-2.16-43.22,9-73.84,33.29-91C616,20.65,644.35,16.27,680,22a241.66,241.66,0,0,1,43.39,11.32c15-10.1,33-15.05,53.93-14.7a140.17,140.17,0,0,1,31.31,4c5.52-2.25,28.66-9,55.84-8.74,40.7.43,74.33,16.14,97.25,45.44,15.61,20,5.43,68,.33,87.8-10.48,40.58-29.84,84.05-53.4,120.14,4,2.42,15.09,5.87,43.5,0,10.86-2.24,17.44-.15,19.54,6.23C975.65,285.36,955.56,298.34,943.08,304.14Z"/><path class="cls-1" d="M878.89,66.6C899,90,908.8,115.83,909.62,124.5a11.08,11.08,0,0,1-.2,3.57c.3,8.95-.84,16.52-2,23.84A152.4,152.4,0,0,0,905.37,171c-.22,6.68.64,13.83,1.55,21.4.67,5.57,1.36,11.35,1.67,17.29a381.84,381.84,0,0,0,25.19-67c10.38-39,8.15-60.6,5.43-65.08-17-21.66-41.13-33.16-71.73-34.17-4.63-.15-9.09,0-13.31.23A144.27,144.27,0,0,1,878.89,66.6Z"/><path class="cls-1" d="M892.54,194.16c-.93-7.78-1.9-15.82-1.65-23.6a164.24,164.24,0,0,1,2.24-20.86A131.8,131.8,0,0,0,895,133.07c-14.26-1.66-30.29-1.14-36.58,7.85-12.66,18.09,13.47,65,23.31,82.6,2.91,5.22,4.83,8.67,5.78,11,.73,1.77,1.51,3.41,2.32,5C896.18,224.57,894.41,209.72,892.54,194.16ZM881.8,146.35a12.91,12.91,0,0,1-7.29,4,10.1,10.1,0,0,1-1.39.1c-5.31,0-9.65-4.17-10-6.7-.44-3.22,4.72-5.65,10-6.39a20.58,20.58,0,0,1,7.32.17c3.26.77,3.95,2.36,4.07,3.24C884.78,142.49,883.28,144.79,881.8,146.35Z"/><path class="cls-1" d="M749.34,150.71c-1.9-8.8-6.22-13.74-13.59-15.53-15.69-3.82-39.62,7.85-45.65,13,0,1,.12,2.15.19,3.41.64,10.82,1.83,31-1.4,54.11a52.29,52.29,0,0,0,7.62,35.76l7-7.39,15.2,10.1a28.27,28.27,0,0,0,12,4.55l10-8.55c.9-2.17,1.86-4.33,2.87-6.57C750.71,217.76,759.57,198.06,749.34,150.71Zm-8.63,2.85a12.58,12.58,0,0,1-7,2.24,11,11,0,0,1-1.53-.11A14.38,14.38,0,0,1,723,150c-.84-1.11-2.2-3.27-1.92-5.27a4.26,4.26,0,0,1,1.76-2.84c2.15-1.63,6.36-2.24,11-1.6,5.74.8,11.64,3.57,11.06,7.76C744.59,150.23,742.53,152.32,740.71,153.56Z"/><path class="cls-1" d="M759.42,289.56,757,292.27l2.44,1.12A9.31,9.31,0,0,0,759.42,289.56Z"/><path class="cls-1" d="M674.54,203.69c3-21.72,1.9-40.93,1.29-51.25-.17-2.8-.29-4.85-.29-6.32-.07-2.89-.89-52.46,24.28-89.08-24.95-7.23-64.45-13.65-87.15,2.44-15.55,11-22.61,33.15-21,65.76.55,11,8.07,52.84,20.49,93.75,16.25,53.52,30.71,72,36.31,75.81a23.24,23.24,0,0,0,3.53-3.56c14-16.82,27.48-31.63,34.32-39A66.47,66.47,0,0,1,674.54,203.69Z"/><path class="cls-1" d="M869,230.58c-14.11-25.31-40.39-72.43-22.53-98,8.21-11.74,23.51-16.45,46.63-14.31-5.79-16.14-24.26-51.74-61.25-71.43-5.63,1.22-9.61,2.41-11.27,2.95l-1.57.85L811,52.16l-4.16-.86a159.2,159.2,0,0,0-29.59-3.06C761.05,48,748,51.74,737.45,59.77l-9.91,7.52L716,62.55l-1.81-.72c-16.67,21.91-21.89,51.31-23.5,68.88l1.87-1c5.86-3,17.61-8.15,30.47-9.48,21.45-2.22,36.18,7.77,40.43,27.4,7.54,34.86,5.36,56.69.82,72.38l2.16-1.84-5,50.61a27.91,27.91,0,0,1,12.36,19.43,7.23,7.23,0,0,1,.29,2.25v.31l3.38-4.23c11.73,9.38,12.72,25.51,13.55,55.56.1,3.5.19,6.92.32,10.12.34,8.58,1.26,31.37,4.54,40.22.53,1.43,1,2.9,1.47,4.32,1.22,3.75,2.9,8.88,5.1,11,2.59,2.44,10.34,1,12.66.52,13.33-2.86,19.7-5.18,24.61-12.18,7.82-11.14,12.21-34.18,13-68.49l0-1,.12-1q.27-2.26.5-4.27c1.64-14.13,3.06-26.33,14.11-34.23a27.41,27.41,0,0,1,5.76-3.15,25.1,25.1,0,0,1,5.43-11.14l0-.11L877,263.7l5.09-7.55.53-.8a77.53,77.53,0,0,1-8.5-15.34C873.46,238.5,871.41,234.83,869,230.58Z"/><path class="cls-1" d="M900.3,279.14q-.75-.49-1.4-1c-.73.24-1.46.44-2.18.65-5.55,1.56-10.35,2.91-9.82,16.3,2,1.15,8.5,2.82,20.31,2.19,11.14-.6,22.83-3.06,29.77-6.28a74,74,0,0,0,14.66-8.87C927.51,286.71,910.25,285.71,900.3,279.14Z"/><path class="cls-1" d="M764.32,220a141,141,0,0,1-7.53,19.51c-1.38,3.08-2.69,6-3.73,8.77l-.94,2.51c-2,5.29-3.81,10.22-5,14.63,5.08-.79,9.28.95,11.66,1.93a20.4,20.4,0,0,1,2.74,1.41l5-50.61Z"/><path class="cls-1" d="M718.73,244.16l-15.2-10.1-7,7.39a50,50,0,0,0,5.9,7.5,43.58,43.58,0,0,0,30.43,13.83,173.48,173.48,0,0,1,5.72-17l.93-2.49c.39-1,.8-2.07,1.23-3.1l-10,8.55A28.27,28.27,0,0,1,718.73,244.16Z"/><path class="cls-1" d="M950.33,68.24C915,23.07,861,25.81,832.85,31.17a132.11,132.11,0,0,1,21.31,12.59c4.22-.27,8.69-.38,13.31-.23,30.6,1,54.73,12.5,71.73,34.17,2.73,4.47,5,26.11-5.43,65.08a381.84,381.84,0,0,1-25.19,67c.71,13.83-.72,28.51-9.52,43.36l.2.25.62.78c21.21-33.74,38.55-73.45,48.16-110.63C959.25,100.11,956.28,75.84,950.33,68.24Zm-11.17,9.41h0Z"/><path class="cls-1" d="M759.42,289.56c-.08-.39-.16-.75-.25-1.05-1-3.47-3.49-6.72-5.94-7.73-3.35-1.39-4.61-1.91-8.23,2.14h0c-2.72,3-4.7,5.55-6.44,7.76-7.8,9.9-11.36,13.26-34.32,18a50.81,50.81,0,0,0-6.87,1.84,28.58,28.58,0,0,0,6.36,2.45c16.38,4.1,39.17,4.4,54.78-17.47a5.8,5.8,0,0,0,.91-2.1L757,292.27Z"/><path class="cls-1" d="M877,263.7l1.81,8.92,0,.11a25,25,0,0,1,11.62-7.2c-.75-1-1.62-2.08-2.47-3.15-1.61-2-3.46-4.33-5.37-7l-.53.8Z"/><path class="cls-1" d="M853.51,321.25q-.23,2-.5,4.27l-.12,1,0,1c-.83,34.31-5.22,57.35-13,68.49-4.91,7-11.28,9.32-24.61,12.18-2.32.5-10.07,1.93-12.66-.52-2.2-2.08-3.88-7.21-5.1-11-.46-1.42-.94-2.89-1.47-4.32-3.28-8.85-4.19-31.64-4.54-40.22-.13-3.2-.22-6.63-.32-10.12-.84-30.06-1.82-46.18-13.55-55.56l-3.38,4.23c-1.23,44.58.18,97.3,4.7,108.6,12.12,30.3,32.08,26,42.8,23.73,26.19-5.61,35.5-15,39.86-40.33,3.36-19.47,10-74.52,10.92-86.45a45.85,45.85,0,0,1,.92-12.47,27.41,27.41,0,0,0-5.76,3.15C856.57,294.92,855.15,307.13,853.51,321.25Z"/><path class="cls-1" d="M720.86,54.17a78,78,0,0,0-6.64,7.66l1.81.72,11.5,4.74,9.91-7.52c10.58-8,23.6-11.8,39.79-11.53a159.2,159.2,0,0,1,29.59,3.06l4.16.86L819,50.67l1.57-.85c1.65-.53,5.64-1.73,11.27-2.95-15.06-8-33.18-13.4-54.78-13.75C754,32.73,735.07,39.82,720.86,54.17Z"/><path class="cls-1" d="M648.49,294.79C642.9,291,628.44,272.5,612.19,219c-12.42-40.9-19.94-82.77-20.49-93.75-1.63-32.61,5.43-54.74,21-65.76,22.7-16.09,62.2-9.67,87.15-2.44a95.05,95.05,0,0,1,10.53-12.82C687.82,37,635.82,24.31,604,46.86,584.11,61,575,87.39,576.86,125.33c.6,12.06,8.25,55.13,21.33,98,15.05,49.32,32,80.38,46.5,85.21,2.11.7,8.54,2.85,18.11-8.66,13.64-16.4,26.48-30.46,32.88-37.33-1.28-1.13-2.53-2.32-3.73-3.57a64.65,64.65,0,0,1-5.61-6.75c-6.84,7.38-20.33,22.19-34.32,39A23.24,23.24,0,0,1,648.49,294.79Z"/></g></g></g></svg>